<svg xmlns="http://www.w3.org/2000/svg" xmlns:xlink="http://www.w3.org/1999/xlink" width="500" zoomAndPan="magnify" viewBox="0 0 375 374.999991" height="500" preserveAspectRatio="xMidYMid meet" version="1.0"><defs><g/><clipPath id="7bd6482d84"><path d="M 130.445312 37.5 L 244.445312 37.5 L 244.445312 170.25 L 130.445312 170.25 Z M 130.445312 37.5 " clip-rule="nonzero"/></clipPath></defs><g fill="#0d161b" fill-opacity="1"><g transform="translate(52.18157, 241.925624)"><g><path d="M 18.671875 0.546875 C 16.722656 0.546875 14.945312 0.1875 13.34375 -0.53125 C 11.738281 -1.25 10.394531 -2.351562 9.3125 -3.84375 L 8.984375 -3.84375 C 9.203125 -2.09375 9.3125 -0.441406 9.3125 1.109375 L 9.3125 13.390625 L 4.796875 13.390625 L 4.796875 -29.828125 L 8.46875 -29.828125 L 9.09375 -25.75 L 9.3125 -25.75 C 10.46875 -27.375 11.816406 -28.550781 13.359375 -29.28125 C 14.898438 -30.007812 16.671875 -30.375 18.671875 -30.375 C 22.617188 -30.375 25.664062 -29.019531 27.8125 -26.3125 C 29.96875 -23.613281 31.046875 -19.820312 31.046875 -14.9375 C 31.046875 -10.039062 29.953125 -6.234375 27.765625 -3.515625 C 25.585938 -0.804688 22.554688 0.546875 18.671875 0.546875 Z M 18.015625 -26.53125 C 14.960938 -26.53125 12.753906 -25.6875 11.390625 -24 C 10.035156 -22.3125 9.34375 -19.628906 9.3125 -15.953125 L 9.3125 -14.9375 C 9.3125 -10.75 10.007812 -7.75 11.40625 -5.9375 C 12.800781 -4.132812 15.039062 -3.234375 18.125 -3.234375 C 20.695312 -3.234375 22.710938 -4.273438 24.171875 -6.359375 C 25.640625 -8.453125 26.375 -11.332031 26.375 -15 C 26.375 -18.71875 25.640625 -21.566406 24.171875 -23.546875 C 22.710938 -25.535156 20.660156 -26.53125 18.015625 -26.53125 Z M 18.015625 -26.53125 "/></g></g></g><g fill="#0d161b" fill-opacity="1"><g transform="translate(87.004125, 241.925624)"><g><path d="M 18.390625 -30.375 C 19.722656 -30.375 20.914062 -30.265625 21.96875 -30.046875 L 21.328125 -25.859375 C 20.097656 -26.128906 19.007812 -26.265625 18.0625 -26.265625 C 15.65625 -26.265625 13.59375 -25.285156 11.875 -23.328125 C 10.164062 -21.367188 9.3125 -18.925781 9.3125 -16 L 9.3125 0 L 4.796875 0 L 4.796875 -29.828125 L 8.515625 -29.828125 L 9.03125 -24.296875 L 9.25 -24.296875 C 10.351562 -26.242188 11.6875 -27.742188 13.25 -28.796875 C 14.8125 -29.847656 16.523438 -30.375 18.390625 -30.375 Z M 18.390625 -30.375 "/></g></g></g><g fill="#0d161b" fill-opacity="1"><g transform="translate(110.423994, 241.925624)"><g><path d="M 17.390625 0.546875 C 12.984375 0.546875 9.503906 -0.796875 6.953125 -3.484375 C 4.398438 -6.171875 3.125 -9.898438 3.125 -14.671875 C 3.125 -19.472656 4.304688 -23.289062 6.671875 -26.125 C 9.046875 -28.957031 12.226562 -30.375 16.21875 -30.375 C 19.957031 -30.375 22.914062 -29.144531 25.09375 -26.6875 C 27.269531 -24.226562 28.359375 -20.984375 28.359375 -16.953125 L 28.359375 -14.09375 L 7.8125 -14.09375 C 7.90625 -10.59375 8.789062 -7.9375 10.46875 -6.125 C 12.144531 -4.3125 14.503906 -3.40625 17.546875 -3.40625 C 20.765625 -3.40625 23.941406 -4.078125 27.078125 -5.421875 L 27.078125 -1.390625 C 25.484375 -0.703125 23.972656 -0.207031 22.546875 0.09375 C 21.117188 0.394531 19.398438 0.546875 17.390625 0.546875 Z M 16.171875 -26.59375 C 13.773438 -26.59375 11.863281 -25.8125 10.4375 -24.25 C 9.007812 -22.6875 8.171875 -20.523438 7.921875 -17.765625 L 23.515625 -17.765625 C 23.515625 -20.617188 22.878906 -22.800781 21.609375 -24.3125 C 20.335938 -25.832031 18.523438 -26.59375 16.171875 -26.59375 Z M 16.171875 -26.59375 "/></g></g></g><g fill="#0d161b" fill-opacity="1"><g transform="translate(142.36186, 241.925624)"><g><path d="M 25.09375 -4 L 24.84375 -4 C 22.757812 -0.96875 19.640625 0.546875 15.484375 0.546875 C 11.585938 0.546875 8.550781 -0.785156 6.375 -3.453125 C 4.207031 -6.117188 3.125 -9.910156 3.125 -14.828125 C 3.125 -19.742188 4.210938 -23.5625 6.390625 -26.28125 C 8.566406 -29.007812 11.597656 -30.375 15.484375 -30.375 C 19.523438 -30.375 22.628906 -28.90625 24.796875 -25.96875 L 25.140625 -25.96875 L 24.953125 -28.109375 L 24.84375 -30.203125 L 24.84375 -42.34375 L 29.359375 -42.34375 L 29.359375 0 L 25.6875 0 Z M 16.0625 -3.234375 C 19.144531 -3.234375 21.378906 -4.070312 22.765625 -5.75 C 24.148438 -7.425781 24.84375 -10.132812 24.84375 -13.875 L 24.84375 -14.828125 C 24.84375 -19.054688 24.140625 -22.070312 22.734375 -23.875 C 21.328125 -25.6875 19.082031 -26.59375 16 -26.59375 C 13.351562 -26.59375 11.328125 -25.5625 9.921875 -23.5 C 8.515625 -21.4375 7.8125 -18.53125 7.8125 -14.78125 C 7.8125 -10.96875 8.507812 -8.085938 9.90625 -6.140625 C 11.300781 -4.203125 13.351562 -3.234375 16.0625 -3.234375 Z M 16.0625 -3.234375 "/></g></g></g><g fill="#0d161b" fill-opacity="1"><g transform="translate(177.184415, 241.925624)"><g><path d="M 9.3125 0 L 4.796875 0 L 4.796875 -29.828125 L 9.3125 -29.828125 Z M 4.40625 -37.90625 C 4.40625 -38.9375 4.660156 -39.691406 5.171875 -40.171875 C 5.679688 -40.660156 6.316406 -40.90625 7.078125 -40.90625 C 7.804688 -40.90625 8.429688 -40.660156 8.953125 -40.171875 C 9.484375 -39.679688 9.75 -38.925781 9.75 -37.90625 C 9.75 -36.894531 9.484375 -36.140625 8.953125 -35.640625 C 8.429688 -35.140625 7.804688 -34.890625 7.078125 -34.890625 C 6.316406 -34.890625 5.679688 -35.140625 5.171875 -35.640625 C 4.660156 -36.140625 4.40625 -36.894531 4.40625 -37.90625 Z M 4.40625 -37.90625 "/></g></g></g><g fill="#0d161b" fill-opacity="1"><g transform="translate(191.950211, 241.925624)"><g><path d="M 16.703125 0.546875 C 12.390625 0.546875 9.046875 -0.78125 6.671875 -3.4375 C 4.304688 -6.09375 3.125 -9.851562 3.125 -14.71875 C 3.125 -19.707031 4.328125 -23.5625 6.734375 -26.28125 C 9.140625 -29.007812 12.566406 -30.375 17.015625 -30.375 C 18.441406 -30.375 19.867188 -30.21875 21.296875 -29.90625 C 22.734375 -29.601562 23.863281 -29.238281 24.6875 -28.8125 L 23.296875 -24.984375 C 22.296875 -25.378906 21.207031 -25.707031 20.03125 -25.96875 C 18.851562 -26.238281 17.8125 -26.375 16.90625 -26.375 C 10.84375 -26.375 7.8125 -22.507812 7.8125 -14.78125 C 7.8125 -11.113281 8.550781 -8.300781 10.03125 -6.34375 C 11.507812 -4.382812 13.695312 -3.40625 16.59375 -3.40625 C 19.082031 -3.40625 21.632812 -3.9375 24.25 -5 L 24.25 -1 C 22.25 0.03125 19.734375 0.546875 16.703125 0.546875 Z M 16.703125 0.546875 "/></g></g></g><g fill="#0d161b" fill-opacity="1"><g transform="translate(219.152827, 241.925624)"><g><path d="M 14.421875 -3.1875 C 15.222656 -3.1875 15.992188 -3.242188 16.734375 -3.359375 C 17.484375 -3.472656 18.070312 -3.597656 18.5 -3.734375 L 18.5 -0.265625 C 18.007812 -0.0351562 17.285156 0.15625 16.328125 0.3125 C 15.378906 0.46875 14.523438 0.546875 13.765625 0.546875 C 7.992188 0.546875 5.109375 -2.492188 5.109375 -8.578125 L 5.109375 -26.3125 L 0.84375 -26.3125 L 0.84375 -28.5 L 5.109375 -30.375 L 7.015625 -36.734375 L 9.640625 -36.734375 L 9.640625 -29.828125 L 18.28125 -29.828125 L 18.28125 -26.3125 L 9.640625 -26.3125 L 9.640625 -8.765625 C 9.640625 -6.960938 10.0625 -5.582031 10.90625 -4.625 C 11.757812 -3.664062 12.929688 -3.1875 14.421875 -3.1875 Z M 14.421875 -3.1875 "/></g></g></g><g fill="#0d161b" fill-opacity="1"><g transform="translate(239.497503, 241.925624)"><g><path d="M 9.3125 0 L 4.796875 0 L 4.796875 -29.828125 L 9.3125 -29.828125 Z M 4.40625 -37.90625 C 4.40625 -38.9375 4.660156 -39.691406 5.171875 -40.171875 C 5.679688 -40.660156 6.316406 -40.90625 7.078125 -40.90625 C 7.804688 -40.90625 8.429688 -40.660156 8.953125 -40.171875 C 9.484375 -39.679688 9.75 -38.925781 9.75 -37.90625 C 9.75 -36.894531 9.484375 -36.140625 8.953125 -35.640625 C 8.429688 -35.140625 7.804688 -34.890625 7.078125 -34.890625 C 6.316406 -34.890625 5.679688 -35.140625 5.171875 -35.640625 C 4.660156 -36.140625 4.40625 -36.894531 4.40625 -37.90625 Z M 4.40625 -37.90625 "/></g></g></g><g fill="#0d161b" fill-opacity="1"><g transform="translate(254.263299, 241.925624)"><g><path d="M 30.53125 -14.9375 C 30.53125 -10.070312 29.304688 -6.273438 26.859375 -3.546875 C 24.410156 -0.816406 21.023438 0.546875 16.703125 0.546875 C 14.035156 0.546875 11.664062 -0.078125 9.59375 -1.328125 C 7.53125 -2.585938 5.9375 -4.382812 4.8125 -6.71875 C 3.6875 -9.0625 3.125 -11.800781 3.125 -14.9375 C 3.125 -19.800781 4.335938 -23.585938 6.765625 -26.296875 C 9.203125 -29.015625 12.582031 -30.375 16.90625 -30.375 C 21.070312 -30.375 24.382812 -28.984375 26.84375 -26.203125 C 29.300781 -23.429688 30.53125 -19.675781 30.53125 -14.9375 Z M 7.8125 -14.9375 C 7.8125 -11.125 8.570312 -8.21875 10.09375 -6.21875 C 11.613281 -4.226562 13.851562 -3.234375 16.8125 -3.234375 C 19.769531 -3.234375 22.015625 -4.226562 23.546875 -6.21875 C 25.085938 -8.207031 25.859375 -11.113281 25.859375 -14.9375 C 25.859375 -18.726562 25.085938 -21.609375 23.546875 -23.578125 C 22.015625 -25.546875 19.753906 -26.53125 16.765625 -26.53125 C 13.804688 -26.53125 11.570312 -25.554688 10.0625 -23.609375 C 8.5625 -21.671875 7.8125 -18.78125 7.8125 -14.9375 Z M 7.8125 -14.9375 "/></g></g></g><g fill="#0d161b" fill-opacity="1"><g transform="translate(288.596007, 241.925624)"><g><path d="M 25.203125 0 L 25.203125 -19.296875 C 25.203125 -21.722656 24.644531 -23.535156 23.53125 -24.734375 C 22.425781 -25.929688 20.695312 -26.53125 18.34375 -26.53125 C 15.21875 -26.53125 12.929688 -25.6875 11.484375 -24 C 10.035156 -22.3125 9.3125 -19.523438 9.3125 -15.640625 L 9.3125 0 L 4.796875 0 L 4.796875 -29.828125 L 8.46875 -29.828125 L 9.203125 -25.75 L 9.421875 -25.75 C 10.335938 -27.21875 11.628906 -28.351562 13.296875 -29.15625 C 14.972656 -29.96875 16.835938 -30.375 18.890625 -30.375 C 22.484375 -30.375 25.1875 -29.503906 27 -27.765625 C 28.8125 -26.035156 29.71875 -23.265625 29.71875 -19.453125 L 29.71875 0 Z M 25.203125 0 "/></g></g></g><g fill="#009959" fill-opacity="1"><g transform="translate(100.544848, 319.925619)"><g><path d="M 20.109375 -22.34375 L 35.890625 -22.34375 L 35.890625 -1.71875 C 33.335938 -0.882812 30.929688 -0.300781 28.671875 0.03125 C 26.410156 0.375 24.101562 0.546875 21.75 0.546875 C 15.738281 0.546875 11.148438 -1.21875 7.984375 -4.75 C 4.816406 -8.28125 3.234375 -13.347656 3.234375 -19.953125 C 3.234375 -26.367188 5.070312 -31.375 8.75 -34.96875 C 12.425781 -38.5625 17.519531 -40.359375 24.03125 -40.359375 C 28.113281 -40.359375 32.050781 -39.539062 35.84375 -37.90625 L 33.03125 -31.15625 C 30.132812 -32.613281 27.113281 -33.34375 23.96875 -33.34375 C 20.320312 -33.34375 17.398438 -32.113281 15.203125 -29.65625 C 13.015625 -27.207031 11.921875 -23.914062 11.921875 -19.78125 C 11.921875 -15.46875 12.800781 -12.171875 14.5625 -9.890625 C 16.332031 -7.617188 18.90625 -6.484375 22.28125 -6.484375 C 24.039062 -6.484375 25.832031 -6.660156 27.65625 -7.015625 L 27.65625 -15.328125 L 20.109375 -15.328125 Z M 20.109375 -22.34375 "/></g></g></g><g fill="#009959" fill-opacity="1"><g transform="translate(141.572206, 319.925619)"><g><path d="M 25.90625 0 L 24.796875 -3.890625 L 24.359375 -3.890625 C 23.460938 -2.472656 22.195312 -1.378906 20.5625 -0.609375 C 18.9375 0.160156 17.082031 0.546875 15 0.546875 C 11.425781 0.546875 8.726562 -0.410156 6.90625 -2.328125 C 5.09375 -4.242188 4.1875 -7 4.1875 -10.59375 L 4.1875 -30.421875 L 12.484375 -30.421875 L 12.484375 -12.65625 C 12.484375 -10.457031 12.875 -8.804688 13.65625 -7.703125 C 14.4375 -6.609375 15.679688 -6.0625 17.390625 -6.0625 C 19.710938 -6.0625 21.390625 -6.835938 22.421875 -8.390625 C 23.453125 -9.941406 23.96875 -12.515625 23.96875 -16.109375 L 23.96875 -30.421875 L 32.28125 -30.421875 L 32.28125 0 Z M 25.90625 0 "/></g></g></g><g fill="#009959" fill-opacity="1"><g transform="translate(178.87124, 319.925619)"><g><path d="M 23.671875 0 L 22.078125 -4.140625 L 21.859375 -4.140625 C 20.453125 -2.378906 19.007812 -1.15625 17.53125 -0.46875 C 16.0625 0.207031 14.132812 0.546875 11.75 0.546875 C 8.832031 0.546875 6.535156 -0.285156 4.859375 -1.953125 C 3.179688 -3.628906 2.34375 -6.007812 2.34375 -9.09375 C 2.34375 -12.320312 3.46875 -14.703125 5.71875 -16.234375 C 7.976562 -17.765625 11.390625 -18.613281 15.953125 -18.78125 L 21.234375 -18.9375 L 21.234375 -20.28125 C 21.234375 -23.363281 19.648438 -24.90625 16.484375 -24.90625 C 14.054688 -24.90625 11.203125 -24.171875 7.921875 -22.703125 L 5.171875 -28.296875 C 8.671875 -30.128906 12.550781 -31.046875 16.8125 -31.046875 C 20.894531 -31.046875 24.023438 -30.15625 26.203125 -28.375 C 28.378906 -26.601562 29.46875 -23.90625 29.46875 -20.28125 L 29.46875 0 Z M 21.234375 -14.09375 L 18.015625 -13.984375 C 15.597656 -13.910156 13.800781 -13.472656 12.625 -12.671875 C 11.445312 -11.878906 10.859375 -10.664062 10.859375 -9.03125 C 10.859375 -6.695312 12.203125 -5.53125 14.890625 -5.53125 C 16.804688 -5.53125 18.34375 -6.082031 19.5 -7.1875 C 20.65625 -8.289062 21.234375 -9.757812 21.234375 -11.59375 Z M 21.234375 -14.09375 "/></g></g></g><g fill="#009959" fill-opacity="1"><g transform="translate(213.203936, 319.925619)"><g><path d="M 21.328125 -31 C 22.453125 -31 23.390625 -30.914062 24.140625 -30.75 L 23.515625 -22.96875 C 22.835938 -23.144531 22.019531 -23.234375 21.0625 -23.234375 C 18.414062 -23.234375 16.351562 -22.550781 14.875 -21.1875 C 13.394531 -19.832031 12.65625 -17.929688 12.65625 -15.484375 L 12.65625 0 L 4.359375 0 L 4.359375 -30.421875 L 10.640625 -30.421875 L 11.859375 -25.3125 L 12.28125 -25.3125 C 13.21875 -27.019531 14.488281 -28.394531 16.09375 -29.4375 C 17.695312 -30.476562 19.441406 -31 21.328125 -31 Z M 21.328125 -31 "/></g></g></g><g fill="#009959" fill-opacity="1"><g transform="translate(239.181931, 319.925619)"><g><path d="M 13.984375 0.546875 C 10.410156 0.546875 7.601562 -0.835938 5.5625 -3.609375 C 3.519531 -6.390625 2.5 -10.238281 2.5 -15.15625 C 2.5 -20.144531 3.535156 -24.03125 5.609375 -26.8125 C 7.691406 -29.601562 10.554688 -31 14.203125 -31 C 18.035156 -31 20.957031 -29.507812 22.96875 -26.53125 L 23.234375 -26.53125 C 22.816406 -28.800781 22.609375 -30.828125 22.609375 -32.609375 L 22.609375 -42.34375 L 30.9375 -42.34375 L 30.9375 0 L 24.578125 0 L 22.96875 -3.953125 L 22.609375 -3.953125 C 20.722656 -0.953125 17.847656 0.546875 13.984375 0.546875 Z M 16.90625 -6.0625 C 19.019531 -6.0625 20.570312 -6.675781 21.5625 -7.90625 C 22.550781 -9.144531 23.09375 -11.242188 23.1875 -14.203125 L 23.1875 -15.109375 C 23.1875 -18.367188 22.679688 -20.707031 21.671875 -22.125 C 20.671875 -23.539062 19.035156 -24.25 16.765625 -24.25 C 14.910156 -24.25 13.46875 -23.460938 12.4375 -21.890625 C 11.414062 -20.328125 10.90625 -18.046875 10.90625 -15.046875 C 10.90625 -12.054688 11.421875 -9.8125 12.453125 -8.3125 C 13.492188 -6.8125 14.976562 -6.0625 16.90625 -6.0625 Z M 16.90625 -6.0625 "/></g></g></g><g clip-path="url(#7bd6482d84)"><path fill="#009959" d="M 132.105469 169.707031 C 130.59375 168.882812 130.425781 167.894531 130.539062 160.375 L 130.640625 153.445312 L 131.578125 152.636719 C 132.421875 151.910156 132.8125 151.832031 135.65625 151.832031 L 138.804688 151.832031 L 138.804688 145.902344 C 138.804688 140.613281 138.875 139.863281 139.449219 138.96875 C 139.804688 138.417969 142.945312 134.960938 146.433594 131.285156 L 152.773438 124.605469 L 152.78125 100.882812 L 152.789062 77.164062 L 144.949219 71.183594 C 140.636719 67.894531 136.964844 64.933594 136.789062 64.605469 C 136.605469 64.257812 136.472656 59.097656 136.472656 52.277344 C 136.472656 39.445312 136.527344 39.046875 138.390625 38.273438 C 139.070312 37.992188 142.253906 37.90625 149.558594 37.976562 C 162.207031 38.097656 161.238281 37.621094 161.402344 43.761719 L 161.511719 47.929688 L 172.785156 47.929688 L 172.785156 44.410156 C 172.785156 40.324219 173.226562 38.886719 174.671875 38.285156 C 175.386719 37.988281 178.917969 37.90625 188.03125 37.976562 C 203.199219 38.09375 201.878906 37.550781 202.042969 43.761719 L 202.15625 47.929688 L 213.425781 47.929688 L 213.425781 44.238281 C 213.425781 40.089844 213.804688 38.914062 215.347656 38.273438 C 216.027344 37.992188 219.207031 37.90625 226.515625 37.976562 C 236.636719 38.070312 236.734375 38.078125 237.488281 38.832031 C 238.246094 39.59375 238.246094 39.605469 238.339844 51.820312 C 238.421875 61.921875 238.355469 64.167969 237.964844 64.757812 C 237.707031 65.148438 234.027344 68.101562 229.792969 71.316406 L 222.09375 77.160156 L 222.09375 100.882812 L 222.089844 124.605469 L 228.789062 131.78125 C 232.472656 135.726562 235.621094 139.308594 235.785156 139.738281 C 235.949219 140.164062 236.082031 143.046875 236.082031 146.144531 L 236.082031 151.769531 L 239.402344 151.882812 C 244.441406 152.058594 244.242188 151.683594 244.242188 161.019531 C 244.242188 168.378906 244.226562 168.53125 243.484375 169.28125 L 242.726562 170.039062 L 187.851562 170.113281 C 140.898438 170.171875 132.847656 170.117188 132.105469 169.707031 Z M 132.105469 169.707031 " fill-opacity="1" fill-rule="nonzero"/></g><path fill="#ffffff" d="M 232.414062 52.105469 L 232.414062 43.917969 L 219.476562 43.917969 L 219.367188 48.085938 C 219.203125 54.191406 220.039062 53.75 208.359375 53.875 C 201.679688 53.945312 198.703125 53.859375 198.023438 53.574219 C 196.480469 52.933594 196.101562 51.757812 196.101562 47.609375 L 196.101562 43.917969 L 178.777344 43.917969 L 178.777344 47.910156 C 178.777344 51.644531 178.726562 51.960938 177.976562 52.835938 L 177.171875 53.773438 L 167.753906 53.875 C 161.042969 53.945312 158.0625 53.859375 157.382812 53.574219 C 155.839844 52.933594 155.460938 51.757812 155.460938 47.609375 L 155.460938 43.917969 L 142.464844 43.917969 L 142.464844 60.289062 L 232.414062 60.289062 Z M 232.414062 52.105469 " fill-opacity="1" fill-rule="nonzero"/><path fill="#ffffff" d="M 222.511719 69.558594 L 226.554688 66.46875 L 207 66.382812 C 196.242188 66.335938 178.652344 66.335938 167.90625 66.382812 L 148.367188 66.46875 L 152.332031 69.542969 L 156.292969 72.617188 L 187.382812 72.632812 L 218.46875 72.652344 Z M 222.511719 69.558594 " fill-opacity="1" fill-rule="nonzero"/><path fill="#ffffff" d="M 216.089844 100.714844 L 216.089844 78.664062 L 158.789062 78.664062 L 158.789062 122.765625 L 216.089844 122.765625 Z M 216.089844 100.714844 " fill-opacity="1" fill-rule="nonzero"/><path fill="#ffffff" d="M 225.527344 137.027344 C 225.195312 136.601562 223.347656 134.574219 221.421875 132.515625 L 217.925781 128.78125 L 187.417969 128.78125 L 156.910156 128.777344 L 148.410156 137.800781 L 226.136719 137.800781 Z M 225.527344 137.027344 " fill-opacity="1" fill-rule="nonzero"/><path fill="#ffffff" d="M 230.082031 147.820312 L 230.082031 143.8125 L 144.796875 143.8125 L 144.796875 151.832031 L 230.082031 151.832031 Z M 230.082031 147.820312 " fill-opacity="1" fill-rule="nonzero"/><path fill="#ffffff" d="M 238.410156 161.019531 L 238.410156 157.84375 L 136.46875 157.84375 L 136.46875 164.191406 L 238.410156 164.191406 Z M 238.410156 161.019531 " fill-opacity="1" fill-rule="nonzero"/></svg>